Coordinates
version=1
nRows=17
nColumns=24
inDegrees=yes

Units are S.I. units (second, meters, Newtons, ...)
Angles are in degrees.

endheader
time	pelvis_tilt	pelvis_list	pelvis_rotation	pelvis_tx	pelvis_ty	pelvis_tz	hip_flexion_r	hip_adduction_r	hip_rotation_r	knee_angle_r	ankle_angle_r	subtalar_angle_r	mtp_angle_r	hip_flexion_l	hip_adduction_l	hip_rotation_l	knee_angle_l	ankle_angle_l	subtalar_angle_l	mtp_angle_l	lumbar_extension	lumbar_bending	lumbar_rotation
      4.11000000	     -6.81221403	     -5.84884612	     -9.22736094	     -2.62456594	      0.67103145	      0.15569650	    -19.71162306	      7.99844845	     15.07612426	    -10.39207263	      9.44501371	      5.16561399	      0.00000000	     26.82780845	     -5.92070803	     11.45728084	      3.98521228	      1.14495022	    -25.25134602	      0.00000000	    -13.78530568	      4.52566584	      6.46553483
      4.12000000	     -6.29645855	     -4.66475767	     -9.08592556	     -2.60786176	      0.67091113	      0.15475653	    -19.47254736	      6.53558011	     12.48415419	    -13.40912631	      8.19642167	      7.83462688	      0.00000000	     27.07962680	     -3.99234250	     12.82850432	      1.10145203	     -0.79487573	    -26.70024841	      0.00000000	    -14.10547943	      2.87923234	      6.32898953
      4.13000000	     -5.92862339	     -3.29919895	     -8.93379450	     -2.59125172	      0.67093978	      0.15367540	    -18.70249516	      4.90071018	     10.15259235	    -16.90258188	      6.39561905	      9.89034656	      0.00000000	     27.69371717	     -1.76827012	     13.62909381	     -2.43830799	     -2.64690324	    -27.59678896	      0.00000000	    -14.25885439	      1.07282547	      6.15128758
      4.14000000	     -5.49356252	     -1.82400662	     -8.76636056	     -2.57480296	      0.67127519	      0.15252832	    -17.63595979	      3.12890257	      8.03434062	    -20.85401780	      4.15132463	     11.39901539	      0.00000000	     28.34403122	      0.62928700	     13.57512354	     -6.32311823	     -3.97413246	    -27.57528737	      0.00000000	    -14.53059450	     -0.86321683	      5.93344796
      4.15000000	     -5.03983750	     -0.33209992	     -8.59390385	     -2.55859026	      0.67175818	      0.15143316	    -16.24202882	      1.33471504	      6.20384988	    -25.22098130	      1.61325322	     12.34242169	      0.00000000	     28.97482700	      2.99281519	     12.73574043	    -10.24456436	     -4.61075986	    -26.78747258	      0.00000000	    -14.85631224	     -2.81642943	      5.70144242
      4.16000000	     -5.10665493	      0.75094372	     -8.51100627	     -2.54321874	      0.67182656	      0.15068843	    -13.88456896	      0.10567178	      5.06166207	    -30.06946904	     -1.26575622	     12.48754573	      0.00000000	     30.26499555	      4.64931801	     10.63933228	    -14.32644934	     -3.40228394	    -23.91281898	      0.00000000	    -14.70522243	     -4.20159545	      5.70105671
      4.17000000	     -5.17382281	      1.78930300	     -8.49530941	     -2.52809694	      0.67200307	      0.15023742	    -11.27256512	     -1.02333390	      4.39064776	    -35.07786778	     -4.05170717	     12.14344187	      0.00000000	     31.13531886	      6.03605581	      8.77809959	    -17.66692024	     -2.17379877	    -21.81356114	      0.00000000	    -14.50339106	     -5.54709324	      5.75687064
      4.18000000	     -5.19776115	      2.86137429	     -8.65260809	     -2.51320627	      0.67245069	      0.15007224	     -8.45965550	     -2.17013409	      4.17002147	    -40.15545234	     -6.40579069	     11.70699069	      0.00000000	     31.43530011	      7.25499850	      7.15742950	    -20.08001152	     -0.70937234	    -20.24877562	      0.00000000	    -14.25644589	     -6.93492020	      6.01597541
      4.19000000	     -5.41856140	      3.80428652	     -8.78256795	     -2.49876325	      0.67291476	      0.15002298	     -5.28861805	     -2.99771878	      4.32045089	    -45.15155632	     -8.18090757	     10.95383189	      0.00000000	     31.52974886	      8.25334846	      5.79473958	    -21.75654985	      1.07268911	    -18.92732122	      0.00000000	    -13.75785869	     -8.08077319	      6.13802139
      4.20000000	     -5.61107182	      4.75914115	     -8.86061680	     -2.48448068	      0.67375411	      0.14989108	     -2.08350041	     -3.76748595	      4.61440113	    -49.90372194	     -9.07355086	     10.44772398	      0.00000000	     31.09563225	      9.28865388	      4.83046104	    -22.55191010	      2.79660782	    -18.03947319	      0.00000000	    -13.22906497	     -9.16074700	      6.13879473
      4.21000000	     -5.76880772	      5.67117261	     -8.87194052	     -2.47023398	      0.67501542	      0.14973410	      1.05503448	     -4.40504602	      5.02880836	    -54.27391881	     -8.97618795	     10.11933214	      0.00000000	     30.13032603	     10.34432717	      4.39219799	    -22.52918185	      4.45375582	    -17.43829161	      0.00000000	    -12.66475743	    -10.13175966	      5.99607485
      4.22000000	     -5.85940288	      6.46130688	     -8.81896728	     -2.45603141	      0.67678756	      0.14948858	      4.05996401	     -4.87432294	      5.45883158	    -58.18400719	     -8.02431511	      9.93842072	      0.00000000	     28.66057303	     11.35836496	      4.45802584	    -21.81190637	      5.83235684	    -17.13482842	      0.00000000	    -12.16971563	    -10.89822190	      5.75154540
      4.23000000	     -5.79651940	      7.07131127	     -8.62822901	     -2.44183759	      0.67908460	      0.14916474	      6.75064187	     -5.14872481	      5.73623260	    -61.53920456	     -6.25658420	      9.65656029	      0.00000000	     26.70109372	     12.29794238	      5.00660077	    -20.62370241	      6.86919070	    -17.07684920	      0.00000000	    -11.89839884	    -11.43304744	      5.33107976
      4.24000000	     -5.80184388	      7.51994813	     -8.59335518	     -2.42759229	      0.68163684	      0.14898404	      9.46612836	     -5.19398972	      6.23491219	    -64.39736181	     -4.00917522	      9.53530407	      0.00000000	     24.45828773	     13.03036382	      6.10162093	    -18.89351487	      7.28201777	    -17.74356926	      0.00000000	    -11.48045139	    -11.75378565	      5.05206767
      4.25000000	     -5.64054541	      7.69918069	     -8.46565744	     -2.41317186	      0.68464452	      0.14871070	     11.78435643	     -5.00825172	      6.47583851	    -66.58432222	     -1.55731176	      8.94091213	      0.00000000	     21.69109765	     13.58618400	      8.18587927	    -16.72875245	      6.76933354	    -19.58615587	      0.00000000	    -11.28737354	    -11.75256249	      4.79595514
      4.26000000	     -5.41024022	      7.57356261	     -8.19474949	     -2.39882721	      0.68782877	      0.14841605	     13.85489157	     -4.53277224	      6.49071025	    -68.20875563	      0.90486618	      8.22576611	      0.00000000	     18.72959983	     13.79723289	     10.65275241	    -14.48608291	      5.93775719	    -21.64897649	      0.00000000	    -11.30650443	    -11.40292288	      4.29385312
      4.27000000	     -5.06079440	      7.26037456	     -8.06691127	     -2.38453695	      0.69114697	      0.14853653	     15.70706637	     -3.82645664	      6.51108215	    -69.31241584	      3.10426546	      6.91760299	      0.00000000	     15.51228823	     13.66146962	     13.33824767	    -12.03690154	      4.38016405	    -24.46257560	      0.00000000	    -11.49477096	    -10.95087834	      4.08095307
